Coordinates
version=1
nRows=24
nColumns=22
inDegrees=yes

Units are S.I. units (second, meters, Newtons, ...)
If the header above contains a line with 'inDegrees', this indicates whether rotational values are in degrees (yes) or radians (no).

endheader
time	pelvis_tilt	pelvis_list	pelvis_rotation	pelvis_tx	pelvis_ty	pelvis_tz	hip_flexion_r	hip_adduction_r	hip_rotation_r	knee_angle_r	ankle_angle_r	subtalar_angle_r	hip_flexion_l	hip_adduction_l	hip_rotation_l	knee_angle_l	ankle_angle_l	subtalar_angle_l	lumbar_extension	lumbar_bending	lumbar_rotation
      0.01000000	      1.38728555	      7.26117943	   -167.80864704	      0.30605090	      0.97418926	      1.06347928	      4.78261083	      7.83528691	     -7.56262513	    -14.82323941	     10.00603506	     -1.66385119	      2.54459245	     -7.22042157	      6.27093439	     -8.95826925	     12.22691168	     -0.95259751	      3.50218511	      5.34448956	     -6.59071466
      0.02000000	      1.39583963	      7.26093477	   -167.82338282	      0.30602001	      0.97418580	      1.06340376	      4.78213975	      7.84080808	     -7.52861106	    -14.81028410	     10.00014673	     -1.65966618	      2.54698876	     -7.22223630	      6.28028338	     -8.95407787	     12.21548876	     -0.95465065	      3.50469047	      5.32938232	     -6.61981289
      0.03000000	      1.39799608	      7.26376999	   -167.83728505	      0.30597939	      0.97418269	      1.06331458	      4.78212083	      7.84847558	     -7.52953187	    -14.80855742	     10.00026597	     -1.65913477	      2.54723012	     -7.22969441	      6.28165373	     -8.95679626	     12.21523274	     -0.95514327	      3.50108152	      5.31341987	     -6.62484865
      0.04000000	      1.39978182	      7.27793852	   -167.87127724	      0.30593456	      0.97417790	      1.06319291	      4.77609650	      7.87399271	     -7.47266436	    -14.79389087	      9.99673300	     -1.65278817	      2.55598786	     -7.25032585	      6.24099784	     -8.97874214	     12.22582595	     -0.96877281	      3.49759486	      5.31307721	     -6.63744974
      0.05000000	      1.40001330	      7.28277107	   -167.89699223	      0.30589384	      0.97417567	      1.06308437	      4.77834424	      7.88547644	     -7.45610972	    -14.80004170	      9.99351002	     -1.65141317	      2.55429092	     -7.26102308	      6.22886603	     -8.98522425	     12.23043511	     -0.97164342	      3.48953717	      5.30161375	     -6.65740015
      0.06000000	      1.40204604	      7.28592937	   -167.91753405	      0.30584530	      0.97417068	      1.06297304	      4.77815278	      7.89427637	     -7.45741409	    -14.79810200	      9.99369142	     -1.65101920	      2.55375600	     -7.27016603	      6.22991099	     -8.99048369	     12.23085286	     -0.97203120	      3.48568677	      5.28372166	     -6.66397888
      0.07000000	      1.40184174	      7.30347198	   -167.97255768	      0.30580020	      0.97416439	      1.06282782	      4.77251493	      7.92503096	     -7.38146571	    -14.78785537	      9.98795370	     -1.64859444	      2.56680448	     -7.29520649	      6.15303776	     -9.02964691	     12.25742323	     -0.98121213	      3.47786077	      5.29094980	     -6.66272475
      0.08000000	      1.40361351	      7.31164231	   -168.01829327	      0.30575398	      0.97415767	      1.06269523	      4.77561905	      7.94162447	     -7.34159637	    -14.79228024	      9.98099755	     -1.64737071	      2.56788420	     -7.31001899	      6.11324408	     -9.04456849	     12.26875229	     -0.98297411	      3.47205754	      5.28495602	     -6.66248272
      0.09000000	      1.40495469	      7.31750096	   -168.06165900	      0.30571137	      0.97415092	      1.06256783	      4.77674449	      7.95536496	     -7.30569643	    -14.79435699	      9.97856895	     -1.64703813	      2.57218655	     -7.32191286	      6.07561245	     -9.06563382	     12.28132905	     -0.98539961	      3.46513306	      5.27682241	     -6.66858943
      0.10000000	      1.40664197	      7.32342794	   -168.10830147	      0.30566135	      0.97414406	      1.06243876	      4.77959788	      7.96914030	     -7.26662754	    -14.79993986	      9.97502802	     -1.64698794	      2.57589530	     -7.33400607	      6.03469304	     -9.08743918	     12.29484951	     -0.98896225	      3.45977935	      5.26883068	     -6.67496175
      0.11000000	      1.40688292	      7.32647568	   -168.14618711	      0.30563553	      0.97413810	      1.06232108	      4.78549375	      7.97829907	     -7.24232758	    -14.81088219	      9.97102846	     -1.64693280	      2.57582729	     -7.34219610	      6.01489559	     -9.09967597	     12.30194103	     -0.99136489	      3.44870799	      5.25727863	     -6.70072930
      0.12000000	      1.41119467	      7.33319835	   -168.20762973	      0.30558757	      0.97412530	      1.06218016	      4.78878556	      7.99396616	     -7.18364349	    -14.81268262	      9.97127665	     -1.64886531	      2.58744018	     -7.35410470	      5.94760167	     -9.13528265	     12.32422678	     -0.99947188	      3.44405632	      5.25116006	     -6.69394549
      0.13000000	      1.41464356	      7.33709345	   -168.26141974	      0.30554786	      0.97411513	      1.06204684	      4.79642759	      8.00534961	     -7.13594430	    -14.82376557	      9.97053200	     -1.65172969	      2.59335437	     -7.36292116	      5.90109410	     -9.15981095	     12.33729886	     -1.00393431	      3.43745615	      5.24048776	     -6.70642382
      0.14000000	      1.41393570	      7.33929914	   -168.30192305	      0.30551633	      0.97411087	      1.06192754	      4.80313719	      8.01382878	     -7.10842675	    -14.83998047	      9.96818975	     -1.65274103	      2.59335941	     -7.37016855	      5.88202110	     -9.17664558	     12.34407345	     -1.00615236	      3.42583385	      5.22713033	     -6.74178810
      0.15000000	      1.41999814	      7.34527963	   -168.36438445	      0.30548028	      0.97409338	      1.06178475	      4.81041378	      8.02815133	     -7.04677043	    -14.84518354	      9.97597521	     -1.65745156	      2.61368649	     -7.37987877	      5.81311806	     -9.22446229	     12.36959377	     -1.01332184	      3.42141500	      5.21821005	     -6.74634738
      0.16000000	      1.42591705	      7.35123824	   -168.41893500	      0.30545439	      0.97407835	      1.06164877	      4.82320012	      8.04089698	     -6.99720484	    -14.85894618	      9.97805549	     -1.66052289	      2.62912863	     -7.38952959	      5.76788624	     -9.25945523	     12.38528641	     -1.01632401	      3.41683163	      5.20807124	     -6.76817319
      0.17000000	      1.43239303	      7.35866821	   -168.47283945	      0.30542727	      0.97406138	      1.06151668	      4.83565620	      8.05469702	     -6.95028800	    -14.87062567	      9.98075225	     -1.66188056	      2.64807910	     -7.40004675	      5.72342175	     -9.29968343	     12.40396647	     -1.01934633	      3.41454176	      5.19913708	     -6.79081553
      0.18000000	      1.44059493	      7.36848655	   -168.52865762	      0.30540234	      0.97404224	      1.06137837	      4.84963045	      8.07061087	     -6.90084742	    -14.88095597	      9.98240626	     -1.66099075	      2.67069966	     -7.41350986	      5.67579003	     -9.34177818	     12.42383148	     -1.02184579	      3.41610609	      5.19179686	     -6.81151722
      0.19000000	      1.44182469	      7.37486970	   -168.57464801	      0.30537239	      0.97403463	      1.06125666	      4.85852297	      8.08233534	     -6.86864831	    -14.89688742	      9.97950172	     -1.65952438	      2.67623318	     -7.42481724	      5.65237061	     -9.36507522	     12.43281125	     -1.02316637	      3.41169008	      5.18060127	     -6.84944600
      0.20000000	      1.45852606	      7.39475489	   -168.64938641	      0.30533758	      0.97400402	      1.06110183	      4.87570085	      8.10914344	     -6.79926297	    -14.89483513	      9.97983883	     -1.65320287	      2.71226115	     -7.44754161	      5.57397537	     -9.41970100	     12.46467437	     -1.02523742	      3.42780116	      5.18410340	     -6.84184444
      0.21000000	      1.47303024	      7.41143822	   -168.71964587	      0.30530068	      0.97397966	      1.06095565	      4.89457062	      8.13128046	     -6.74059789	    -14.90123680	      9.97466401	     -1.64521265	      2.73390476	     -7.46805905	      5.51421956	     -9.45258311	     12.48340844	     -1.02111307	      3.44295107	      5.18375477	     -6.84893295
      0.22000000	      1.47711835	      7.42053835	   -168.77599688	      0.30525048	      0.97396891	      1.06083371	      4.90166006	      8.14545968	     -6.70655013	    -14.91123290	      9.96983659	     -1.64151714	      2.73591199	     -7.48216111	      5.48058014	     -9.46951284	     12.49453651	     -1.02049759	      3.44854223	      5.17669228	     -6.88242971
      0.23000000	      1.49467941	      7.44568207	   -168.87064626	      0.30519458	      0.97394188	      1.06067166	      4.91430714	      8.17863422	     -6.61971170	    -14.90174538	      9.96139407	     -1.63071023	      2.76220761	     -7.51200467	      5.38568106	     -9.51390944	     12.52478803	     -1.01705851	      3.47038235	      5.18921858	     -6.85381507
      0.24000000	      1.50803716	      7.46106572	   -168.95681330	      0.30514155	      0.97392316	      1.06053122	      4.92458612	      8.20029530	     -6.55008138	    -14.89989320	      9.95448670	     -1.62236919	      2.77391785	     -7.53151366	      5.31222527	     -9.54048436	     12.54484649	     -1.01068173	      3.48609793	      5.19260377	     -6.85217167
